<svg xmlns="http://www.w3.org/2000/svg" width="48" height="48" viewBox="0 0 48 48" fill="none">
  <path d="M45 32.9474C45 35.3685 43.0345 37.3158 40.5862 37.3158H7.4138C4.96551 37.3158 3 35.3684 3 32.9474V15.0526C3 12.6316 4.96552 10.6842 7.4138 10.6842H40.5862C43.0345 10.6842 45 12.6316 45 15.0526V32.9474Z" fill="#016FD0"/>
  <path d="M10.9311 23.9999L13.3794 17.6842H16.3794L17.7931 21.6842L19.2069 17.6842H22.2069L24.6553 23.9999H21.3794L20.6897 22.4736L19.0345 23.9999H16.5517L15.8621 22.4736L14.2069 23.9999H10.9311Z" fill="white"/>
  <path d="M25.1724 23.9999V17.6842H31.2069L32.7931 19.421L34.3793 17.6842H40.4138V23.9999H37.2414V19.7368H33.5172L32.7931 20.5263L32.069 19.7368H28.3448V23.9999H25.1724Z" fill="white"/>
  <path d="M10.9311 30.3158H14.2069L15.8621 28.7895L16.5517 30.3158H19.0345L20.6897 28.7895L21.3794 30.3158H24.6553L22.2069 24H19.2069L17.7931 28L16.3794 24H13.3794L10.9311 30.3158Z" fill="white"/>
  <path d="M25.1724 30.3158H28.3448V26.0526H32.069L32.7931 26.8421L33.5172 26.0526H37.2414V30.3158H40.4138V24H34.3793L32.7931 25.7368L31.2069 24H25.1724V30.3158Z" fill="white"/>
</svg>
