<svg xmlns="http://www.w3.org/2000/svg" width="48" height="48" viewBox="0 0 48 48" fill="none">
  <path d="M45 32C45 34.2 43.2 36 41 36H7C4.8 36 3 34.2 3 32V16C3 13.8 4.8 12 7 12H41C43.2 12 45 13.8 45 16V32Z" fill="#0079BE"/>
  <path d="M24 32C28.4183 32 32 28.4183 32 24C32 19.5817 28.4183 16 24 16C19.5817 16 16 19.5817 16 24C16 28.4183 19.5817 32 24 32Z" fill="#0079BE"/>
  <path d="M21 19.3999V28.5999C17.8 27.3999 16 24.3999 16 23.9999C16 23.5999 17.8 20.5999 21 19.3999Z" fill="white"/>
  <path d="M21 19.3999C22.4 18.7999 23.8 18.9999 25 19.1999C27 19.5999 29.6 21.3999 30 23.9999C30.4 26.5999 29 28.3999 27 29.1999C26 29.5999 24.6 29.7999 23.2 29.3999C22.8 29.3999 22.6 29.1999 22.2 29.1999V19.7999C22 19.5999 21.6 19.5999 21 19.3999Z" fill="white"/>
</svg>
