<svg xmlns="http://www.w3.org/2000/svg" width="48" height="48" viewBox="0 0 48 48" fill="none">
  <path d="M19.5 27.6315C18.3879 27.6315 17.3217 27.19 16.5325 26.4009C15.7434 25.6117 15.3018 24.5455 15.3018 23.4335C15.3018 22.3214 15.7434 21.2552 16.5325 20.466C17.3217 19.6769 18.3879 19.2354 19.5 19.2354C20.612 19.2354 21.6782 19.6769 22.4674 20.466C23.2566 21.2552 23.6981 22.3214 23.6981 23.4335C23.6981 24.5455 23.2566 25.6117 22.4674 26.4009C21.6782 27.19 20.612 27.6315 19.5 27.6315Z" fill="#FFF200"/>
  <path d="M28.5 27.6315C27.3879 27.6315 26.3217 27.19 25.5325 26.4009C24.7434 25.6117 24.3018 24.5455 24.3018 23.4335C24.3018 22.3214 24.7434 21.2552 25.5325 20.466C26.3217 19.6769 27.3879 19.2354 28.5 19.2354C29.612 19.2354 30.6782 19.6769 31.4674 20.466C32.2566 21.2552 32.6981 22.3214 32.6981 23.4335C32.6981 24.5455 32.2566 25.6117 31.4674 26.4009C30.6782 27.19 29.612 27.6315 28.5 27.6315Z" fill="#00A3DF"/>
  <path d="M24.0002 19.2354C24.0002 17.0062 25.2252 15.0528 27.0342 14.0801C25.8084 13.1057 24.2607 12.5488 22.6247 12.5488C18.6499 12.5488 15.4247 17.4993 15.4247 23.4335C15.4247 29.3676 18.6499 34.3181 22.6247 34.3181C24.2607 34.3181 25.8084 33.7612 27.0342 32.7868C25.2252 31.8142 24.0002 29.8608 24.0002 27.6315V19.2354Z" fill="#00B33E"/>
  <path d="M24.0001 27.6315C24.0001 29.8643 25.2292 31.8202 27.0426 32.7908C28.2695 33.7629 29.8172 34.3181 31.4523 34.3181C35.43 34.3181 38.6552 29.3676 38.6552 23.4335C38.6552 17.4993 35.43 12.5488 31.4523 12.5488C29.8172 12.5488 28.2695 13.104 27.0426 14.0761C25.2292 15.0467 24.0001 17.0026 24.0001 19.2354V27.6315Z" fill="#EF4123"/>
</svg>
