<svg xmlns="http://www.w3.org/2000/svg" width="48" height="48" viewBox="0 0 48 48" fill="none">
  <path d="M43 12H5C3.89543 12 3 12.8954 3 14V34C3 35.1046 3.89543 36 5 36H43C44.1046 36 45 35.1046 45 34V14C45 12.8954 44.1046 12 43 12Z" fill="#822124"/>
  <path d="M13.7 18.5H12V29.5H13.7V18.5Z" fill="white"/>
  <path d="M18.3 18.5H15.1V19.9H18V21.2H15.1V22.9H18.3V24.3H13.6V18.5H18.3Z" fill="white"/>
  <path d="M23.0001 18.5H19.9001V24.3H21.6001V22.7H23.0001C24.5001 22.7 25.7001 21.7 25.7001 20.6C25.7001 19.4 24.5001 18.5 23.0001 18.5ZM22.8001 21.4H21.6001V19.9H22.8001C23.5001 19.9 24.0001 20.2 24.0001 20.6C24.0001 21 23.5001 21.4 22.8001 21.4Z" fill="white"/>
  <path d="M32.2 18.5H30.7L29.2 20.6L27.7 18.5H26L28.4 21.8L25.8 24.3H27.5L29.2 22L30.9 24.3H32.6L30 21.8L32.2 18.5Z" fill="white"/>
  <path d="M37.5 23.0001H35.0V18.5001H33.3V24.3001H37.5V23.0001Z" fill="white"/>
  <path d="M40.2 18.5H38.5V24.3H40.2V18.5Z" fill="white"/>
  <path d="M40.2 25.5H33.4V26.9H36.1V29.5H37.7V26.9H40.2V25.5Z" fill="white"/>
</svg>
