<svg xmlns="http://www.w3.org/2000/svg" width="48" height="48" viewBox="0 0 48 48" fill="none">
  <path d="M16.7997 15H31.1997V33H16.7997V15Z" fill="#FF5F00"/>
  <path d="M17.9996 24C17.9996 20.4 19.7996 17.2 22.5996 15C20.5996 13.4 17.9996 12.6 15.1996 12.6C8.59961 12.6 3.19961 17.8 3.19961 24C3.19961 30.2 8.59961 35.4 15.1996 35.4C17.9996 35.4 20.5996 34.6 22.5996 33C19.7996 31 17.9996 27.6 17.9996 24Z" fill="#EB001B"/>
  <path d="M44.7996 24C44.7996 30.2 39.3996 35.4 32.7996 35.4C29.9996 35.4 27.3996 34.6 25.3996 33C28.3996 30.8 29.9996 27.6 29.9996 24C29.9996 20.4 28.1996 17.2 25.3996 15C27.3996 13.4 29.9996 12.6 32.7996 12.6C39.3996 12.6 44.7996 17.8 44.7996 24Z" fill="#F79E1B"/>
</svg>
