<svg xmlns="http://www.w3.org/2000/svg" width="48" height="48" viewBox="0 0 48 48" fill="none">
  <path d="M17.4144 29.8632H13.4585L15.9307 18.1371H19.8866L17.4144 29.8632Z" fill="#00579F"/>
  <path d="M30.9177 18.4807C30.0842 18.1481 28.7685 17.7949 27.1396 17.7949C23.4477 17.7949 20.8149 19.7452 20.8022 22.5417C20.7897 24.5955 22.7295 25.7346 24.191 26.4563C25.6905 27.1927 26.1789 27.6681 26.1743 28.3328C26.1673 29.3632 24.9353 29.8329 23.7879 29.8329C22.1475 29.8329 21.2765 29.569 19.9487 28.9954L19.4195 28.7548L18.8438 32.0723C19.8437 32.5415 21.7199 32.9611 23.6676 32.9781C27.606 32.9781 30.1898 31.05 30.2113 28.0578C30.2221 26.4174 29.1865 25.1503 26.9541 24.0645C25.5982 23.3725 24.7927 22.9014 24.8011 22.194C24.8011 21.5628 25.5193 20.889 27.0693 20.889C28.3348 20.8719 29.2353 21.204 29.9244 21.5421L30.3171 21.7404L30.9177 18.4807Z" fill="#00579F"/>
  <path d="M35.6982 18.1371H32.6775C31.8525 18.1371 31.2271 18.3848 30.8625 19.2079L26.2051 29.8633H30.1471C30.1471 29.8633 30.6953 28.4034 30.8288 28.0623C31.2164 28.0623 34.4414 28.0671 34.9228 28.0671C35.0285 28.5127 35.3323 29.8633 35.3323 29.8633H38.8329L35.6982 18.1371ZM31.6812 25.1077C31.9733 24.3447 33.1157 21.3055 33.1157 21.3055C33.0963 21.3406 33.3901 20.5857 33.551 20.0973L33.7865 21.2089C33.7865 21.2089 34.492 24.3796 34.6365 25.1077H31.6812Z" fill="#00579F"/>
  <path d="M12.1647 18.1371L8.44415 26.1699L8.0755 24.2776C7.4224 21.8438 5.31811 19.2079 3 17.8328L6.41367 29.8541H10.3902L16.1534 18.1371H12.1647Z" fill="#00579F"/>
  <path d="M9.43359 15.0218H3.69089C3.24923 15.0562 2.9045 15.2298 2.75012 15.7946L0 29.8631H5.96484C5.96484 29.8631 6.79381 25.6474 6.94527 24.9663C7.42729 24.9663 11.9073 24.9663 13.0336 24.9663C13.1566 25.5264 14.0008 29.8631 14.0008 29.8631H19.3828L15.4332 15.0218H9.43359Z" fill="#FAA61A"/>
</svg>
